<svg xmlns="http://www.w3.org/2000/svg" width="32" height="32" viewBox="0 0 32 32" fill="none">
  <!-- Background circle -->
  <circle cx="16" cy="16" r="15" fill="#3B82F6" stroke="#1E40AF" stroke-width="2"/>
  
  <!-- Search magnifying glass -->
  <path d="M12 12L8 8M12 12C13.1046 12 14 11.1046 14 10C14 8.89543 13.1046 8 12 8C10.8954 8 10 8.89543 10 10C10 11.1046 10.8954 12 12 12Z" stroke="white" stroke-width="2" stroke-linecap="round" stroke-linejoin="round"/>
  
  <!-- Document/log lines -->
  <rect x="18" y="10" width="8" height="1.5" rx="0.75" fill="white"/>
  <rect x="18" y="13" width="6" height="1.5" rx="0.75" fill="white"/>
  <rect x="18" y="16" width="7" height="1.5" rx="0.75" fill="white"/>
  <rect x="18" y="19" width="5" height="1.5" rx="0.75" fill="white"/>
  
  <!-- Small search icon in corner -->
  <circle cx="22" cy="22" r="3" fill="#F59E0B"/>
  <path d="M21 21L23 23M21 21C21.5523 21 22 21.4477 22 22C22 22.5523 21.5523 23 21 23C20.4477 23 20 22.5523 20 22C20 21.4477 20.4477 21 21 21Z" stroke="white" stroke-width="1" stroke-linecap="round" stroke-linejoin="round"/>
</svg>
